<?xml version="1.0" encoding="utf-8"?>
<!-- Generator: Adobe Illustrator 25.0.1, SVG Export Plug-In . SVG Version: 6.00 Build 0)  -->
<svg version="1.1" id="Layer_1" xmlns="http://www.w3.org/2000/svg" xmlns:xlink="http://www.w3.org/1999/xlink" x="0px" y="0px"
	 viewBox="0 0 133 34" style="enable-background:new 0 0 133 34;" xml:space="preserve">
<style type="text/css">
	.st0{fill:#FFFFFF;}
	.st1{fill:#E3B08F;}
</style>
<g>
	<path class="st0" d="M49.7,18h2v2.7c0,2.2-1.7,3.3-5,3.3h-5.5c-3.7,0-5.5-1.1-5.5-3.3v-7c0-2.2,1.9-3.2,5.5-3.2h2.2
		c0.5,0,0.7,0.3,0.7,0.8c0,0.5-0.2,0.8-0.7,0.8h-1.5c-2.7,0-4.2,0.6-4.2,1.7v7c0,1.2,1.1,1.7,3.5,1.7h5.5c2,0,3-0.6,3-1.6V18z
		 M51.7,18h-2h-2.5c-0.4,0-0.7-0.4-0.7-0.7v-0.1c0-0.4,0.4-0.7,0.7-0.7H51c0.4,0,0.7,0.4,0.7,0.7V18z M123.7,23.2
		c0,0.6-0.3,0.9-0.9,0.9c-0.6,0-0.9-0.3-0.9-0.9v-6.8c0-0.9-0.9-1.2-2.5-1.2h-4.7c-1.7,0-2.6,0.4-2.6,1.2v6.8c0,0.6-0.3,0.9-0.9,0.9
		s-0.9-0.3-0.9-0.9v-6.8c0-1.9,1.7-2.8,5-2.8h3.6c3.3,0,5,0.9,5,2.8V23.2z M106.7,23.2c0,0.6-0.3,0.9-0.9,0.9
		c-0.6,0-0.9-0.3-0.9-0.9V15c0-0.5,0.3-0.8,0.9-0.8c0.6,0,0.9,0.3,0.9,0.8L106.7,23.2L106.7,23.2z M106.9,12.1c0,0.6-0.4,1-1.3,1
		c-0.8,0-1.2-0.4-1.2-1s0.4-1,1.2-1C106.5,11.1,106.9,11.5,106.9,12.1z M101.3,20.8c0,2.1-1.7,3.2-4.9,3.2h-3.8c-3.3,0-5-1-5-3.2v-4
		c0-2.2,1.7-3.2,5-3.2h3.7c3.2,0,4.9,1.1,4.9,3.2V20.8z M99.3,16.7c0-1-0.9-1.5-2.7-1.5h-4.3c-1.9,0-2.9,0.6-2.9,1.7v4
		c0,1,0.9,1.6,2.9,1.6h4.3c1.8,0,2.7-0.5,2.7-1.6V16.7z M77.3,23.9c-3.4,0-5.1-1-5.1-3v-4.2c0-2,1.5-3,4.6-3h7
		c0.6,0,0.9,0.2,0.9,0.7c0,0.5-0.3,0.8-0.9,0.8h-7.2c-1.7,0-2.5,0.5-2.5,1.4v4.2c0,1,0.9,1.6,2.9,1.6h6.8c0.6,0,0.8,0.3,0.8,0.9
		c0,0.5-0.3,0.7-0.8,0.7H77.3z M68.6,18.8c0,0.6-0.3,0.9-0.9,0.9h-11V21c0,0.9,0.9,1.4,2.9,1.4h2.1c0.5,0,0.8,0.3,0.8,0.8
		c0,0.5-0.3,0.8-0.8,0.8h-1.6c-3.4,0-5.2-1.1-5.2-3.2v-4c0-2.1,1.7-3.2,5.2-3.2h4.2c2.9,0,4.3,0.9,4.3,2.7V18.8z M56.7,18.1h10v-1.5
		c0-0.9-0.7-1.4-2.2-1.4h-5c-1.9,0-2.9,0.5-2.9,1.5V18.1z"/>
	<path class="st0" d="M129.3,14.2c0.4,0,0.6-0.2,0.6-0.6c0-0.4-0.2-0.6-0.6-0.6h-0.6v1.2L129.3,14.2L129.3,14.2z M130.2,14.7
		l0.8,1.2h-1l-0.5-1h-0.1h-0.6v1h-0.9v-3.6h1.5c0.9,0,1.5,0.4,1.5,1.2C130.8,14.1,130.6,14.5,130.2,14.7z M132.1,14.2
		c0-1.6-1.2-2.9-2.9-2.9c-1.7,0-2.9,1.3-2.9,2.9s1.2,2.9,2.9,2.9C130.8,17.1,132.1,15.8,132.1,14.2z M133,14.2
		c0,2.1-1.7,3.8-3.8,3.8c-2.1,0-3.7-1.7-3.7-3.7c0-2.1,1.7-3.8,3.7-3.8C131.3,10.5,133,12.1,133,14.2z"/>
	<path class="st1" d="M11.8,17.4c0,0.6-0.5,1.2-1.2,1.2H5.6c-0.6,0-1.2-0.5-1.2-1.2v-7.1c0-0.6,0.5-1.2,1.2-1.2h5.1
		c0.6,0,1.2,0.5,1.2,1.2V17.4z M11.8,22.1v-2.4c0-0.6,0.5-1.2,1.2-1.2H15c0.6,0,1.2-0.5,1.2-1.2v-7.1c0-0.6-0.5-1.2-1.2-1.2h-2.1
		c-0.6,0-1.2-0.5-1.2-1.2V5.5c0-0.6,0.5-1.2,1.2-1.2H15c0.6,0,1.2-0.5,1.2-1.2V1.1C16.2,0.3,15.8,0,15,0h-2.1
		c-0.4,0-1.2,0.3-1.2,1.1v2.2c0,0.6-0.5,1.2-1.2,1.2H5.6c-0.6,0-1.2,0.5-1.2,1.1V8c0,0.6-0.5,1.2-1.2,1.2H1.2C0.5,9.1,0,9.7,0,10.3
		v7.1c0,0.6,0.5,1.2,1.2,1.2h2.1c0.6,0,1.2,0.5,1.2,1.2v2.4c0,0.6,0.5,1.2,1.2,1.2h5.1c0.6,0,1.2,0.5,1.2,1.2v3.7
		c0,0.6-0.5,1.2-1.2,1.2H5.6c-0.6,0-1.2-0.5-1.2-1.2v-2.3c0-0.6-0.5-1-1.1-1H1.2c-0.6,0-1.1,0.4-1.1,1v2.3c0,0.6,0.5,1.2,1.2,1.2
		h2.1c0.6,0,1.2,0.5,1.2,1.2v2.3C4.4,33.5,5,34,5.6,34h5.1c0.6,0,1.2-0.5,1.2-1.2v-2.3c0-0.6,0.5-1.2,1.2-1.2h2.1
		c0.6,0,1.2-0.5,1.2-1.2v-3.7c0-0.6-0.5-1.2-1.2-1.2H13C12.3,23.3,11.8,22.8,11.8,22.1z"/>
</g>
</svg>
