<svg xmlns="http://www.w3.org/2000/svg" width="133.41" height="14.593" viewBox="0 0 133.41 14.593">
  <defs>
    <style>
      .cls-1 {
        fill: #fff;
        fill-rule: evenodd;
      }
    </style>
  </defs>
  <path id="buy_gecoins" data-name="buy gecoins" class="cls-1" d="M1296.19,147.52a5.714,5.714,0,0,0,4.02-1.16,4.254,4.254,0,0,0,1.22-3.2,3.347,3.347,0,0,0-2.04-3.2v-0.02a2.886,2.886,0,0,0,1.52-2.66,3.51,3.51,0,0,0-1.14-2.661,4.031,4.031,0,0,0-2.98-1.1h-5.94v14h5.34Zm-2.64-6.161h3.28a1.7,1.7,0,0,1,1.9,1.8,1.671,1.671,0,0,1-1.92,1.86h-3.26v-3.66Zm0-5.342h2.9a1.581,1.581,0,1,1,0,3.141h-2.9v-3.141Zm10.98,6.942c0,3.141,2.06,4.861,5.26,4.861s5.28-1.72,5.28-4.861v-9.442h-2.7v9.362a2.573,2.573,0,0,1-5.14-.04v-9.322h-2.7v9.442Zm20.1,4.561v-5.9l4.58-8.1h-2.9l-3,5.741h-0.04l-3-5.741h-2.9l4.58,8.1v5.9h2.68Zm17.66,0.3a5.213,5.213,0,0,0,3.88-1.54,5.826,5.826,0,0,0,1.5-4.221V140.2h-5.18v2.3h2.6a2.582,2.582,0,0,1-2.8,2.82c-1.92,0-3.3-1.6-3.3-5.021a5.272,5.272,0,0,1,.96-3.38,2.9,2.9,0,0,1,2.34-1.2c1.46,0,2.34.9,2.68,2.7l2.7-.44a5.371,5.371,0,0,0-1.8-3.481,5.258,5.258,0,0,0-3.6-1.28,5.692,5.692,0,0,0-4.28,1.88,7.293,7.293,0,0,0-1.78,5.2c0,2.521.56,4.4,1.68,5.662A5.7,5.7,0,0,0,1342.29,147.82Zm17.64-.3v-2.5h-6.16v-3.46h5.6v-2.4h-5.6v-3.141h6.16v-2.5h-8.86v14h8.86Zm11.72-5.561c-0.26,2.24-1.16,3.36-2.74,3.36-1.92,0-3.3-1.6-3.3-5.021a5.272,5.272,0,0,1,.96-3.38,2.9,2.9,0,0,1,2.34-1.2c1.62,0,2.48,1.2,2.72,2.9l2.68-.42a5.363,5.363,0,0,0-1.76-3.621,5.283,5.283,0,0,0-3.66-1.36,5.692,5.692,0,0,0-4.28,1.88,7.293,7.293,0,0,0-1.78,5.2c0,2.521.56,4.4,1.68,5.662a5.7,5.7,0,0,0,4.4,1.86c3.1,0,5.08-1.98,5.54-5.241Zm14.66-1.561c0,3.461-1.36,4.941-3.28,4.941s-3.28-1.52-3.28-4.941c0-3.04,1.42-4.681,3.28-4.681C1384.87,135.717,1386.31,137.358,1386.31,140.4Zm-9.36,0a8.116,8.116,0,0,0,1.88,5.742,5.928,5.928,0,0,0,4.2,1.68,5.814,5.814,0,0,0,4.18-1.68c1.18-1.141,1.9-3.161,1.9-5.742a7.484,7.484,0,0,0-1.9-5.4,5.7,5.7,0,0,0-4.18-1.78,5.814,5.814,0,0,0-4.2,1.78A7.653,7.653,0,0,0,1376.95,140.4Zm18.36,7.122v-14h-2.7v14h2.7Zm7,0v-9.182h0.04l5.18,9.182h2.66v-14h-2.72V142.7h-0.04l-5.12-9.182h-2.7v14h2.7Zm11.18-4.681c0.4,3.3,2.44,4.981,5.62,4.981a5.47,5.47,0,0,0,3.74-1.22,3.9,3.9,0,0,0,1.4-3.081,3.486,3.486,0,0,0-.86-2.5,8.112,8.112,0,0,0-3.18-1.741,22.643,22.643,0,0,1-2.98-1.14,1.058,1.058,0,0,1-.58-0.96c0-.88.68-1.461,2.06-1.461a2.524,2.524,0,0,1,2.58,1.981l2.62-.66c-0.48-2.541-2.56-3.821-5.2-3.821a4.936,4.936,0,0,0-3.46,1.18,3.67,3.67,0,0,0-1.26,2.8c0,1.9,1.1,3.14,4,4.041a12.8,12.8,0,0,1,2.96,1.18,1.45,1.45,0,0,1,.66,1.28c0,1.06-.98,1.62-2.5,1.62-1.78,0-2.44-.92-2.78-3.1Z" transform="translate(-1290.84 -133.219)"/>
</svg>
